<svg xmlns="http://www.w3.org/2000/svg" xmlns:xlink="http://www.w3.org/1999/xlink" zoomAndPan="magnify" preserveAspectRatio="xMidYMid meet" version="1.0" viewBox="1.08 147.57 371.48 91.24"><defs><g/></defs><g fill="#78350f" fill-opacity="1"><g transform="translate(0.421879, 193.127843)"><g><path d="M 19.4375 -37.5625 C 22.03125 -37.5625 24.453125 -37.070312 26.703125 -36.09375 C 28.960938 -35.125 30.957031 -33.785156 32.6875 -32.078125 C 34.425781 -30.367188 35.78125 -28.375 36.75 -26.09375 C 37.726562 -23.820312 38.21875 -21.382812 38.21875 -18.78125 L 38.21875 0 L 22.625 0 L 22.625 -18.78125 C 22.625 -19.644531 22.304688 -20.398438 21.671875 -21.046875 C 21.046875 -21.703125 20.300781 -22.03125 19.4375 -22.03125 C 18.519531 -22.03125 17.75 -21.703125 17.125 -21.046875 C 16.5 -20.398438 16.1875 -19.644531 16.1875 -18.78125 C 16.1875 -17.914062 16.5 -17.15625 17.125 -16.5 C 17.75 -15.851562 18.519531 -15.53125 19.4375 -15.53125 L 21.703125 -15.53125 L 21.703125 0 L 19.4375 0 C 16.832031 0 14.390625 -0.484375 12.109375 -1.453125 C 9.835938 -2.429688 7.847656 -3.785156 6.140625 -5.515625 C 4.429688 -7.253906 3.085938 -9.25 2.109375 -11.5 C 1.140625 -13.757812 0.65625 -16.1875 0.65625 -18.78125 C 0.65625 -21.382812 1.140625 -23.820312 2.109375 -26.09375 C 3.085938 -28.375 4.429688 -30.367188 6.140625 -32.078125 C 7.847656 -33.785156 9.835938 -35.125 12.109375 -36.09375 C 14.390625 -37.070312 16.832031 -37.5625 19.4375 -37.5625 Z M 19.4375 -37.5625 "/></g></g></g><g fill="#78350f" fill-opacity="1"><g transform="translate(39.222246, 193.127843)"><g><path d="M 0.65625 -45.5625 L 16.640625 -45.5625 L 16.640625 0 L 0.65625 0 Z M 0.65625 -45.5625 "/></g></g></g><g fill="#78350f" fill-opacity="1"><g transform="translate(56.510183, 193.127843)"><g><path d="M 22.421875 -36.46875 L 38.546875 -36.46875 L 38.546875 -17.8125 C 38.546875 -14.6875 38.015625 -11.941406 36.953125 -9.578125 C 35.890625 -7.222656 34.445312 -5.253906 32.625 -3.671875 C 30.8125 -2.085938 28.773438 -0.90625 26.515625 -0.125 C 24.265625 0.65625 21.96875 1.046875 19.625 1.046875 C 17.25 1.046875 14.929688 0.65625 12.671875 -0.125 C 10.421875 -0.90625 8.382812 -2.085938 6.5625 -3.671875 C 4.738281 -5.253906 3.296875 -7.222656 2.234375 -9.578125 C 1.179688 -11.941406 0.65625 -14.6875 0.65625 -17.8125 L 0.65625 -36.46875 L 16.765625 -36.46875 L 16.765625 -18.453125 C 16.765625 -17.328125 17.066406 -16.484375 17.671875 -15.921875 C 18.285156 -15.359375 18.9375 -15.078125 19.625 -15.078125 C 20.320312 -15.078125 20.960938 -15.359375 21.546875 -15.921875 C 22.128906 -16.484375 22.421875 -17.328125 22.421875 -18.453125 Z M 22.421875 -36.46875 "/></g></g></g><g fill="#78350f" fill-opacity="1"><g transform="translate(95.700507, 193.127843)"><g><path d="M 37.1875 0 L 21.640625 0 L 21.640625 -18.453125 C 21.640625 -19.453125 21.390625 -20.203125 20.890625 -20.703125 C 20.398438 -21.203125 19.816406 -21.453125 19.140625 -21.453125 C 18.472656 -21.453125 17.890625 -21.210938 17.390625 -20.734375 C 16.890625 -20.253906 16.640625 -19.519531 16.640625 -18.53125 L 16.640625 0 L 0.65625 0 L 0.65625 -19.171875 C 0.65625 -22.597656 1.179688 -25.476562 2.234375 -27.8125 C 3.296875 -30.15625 4.726562 -32.039062 6.53125 -33.46875 C 8.332031 -34.90625 10.328125 -35.945312 12.515625 -36.59375 C 14.703125 -37.238281 16.921875 -37.5625 19.171875 -37.5625 C 20.992188 -37.5625 22.789062 -37.25 24.5625 -36.625 C 26.34375 -36 27.96875 -34.945312 29.4375 -33.46875 C 30.695312 -34.863281 32.25 -35.882812 34.09375 -36.53125 C 35.9375 -37.175781 37.742188 -37.519531 39.515625 -37.5625 C 41.816406 -37.5625 44.070312 -37.226562 46.28125 -36.5625 C 48.488281 -35.894531 50.488281 -34.832031 52.28125 -33.375 C 54.082031 -31.925781 55.523438 -30.03125 56.609375 -27.6875 C 57.691406 -25.351562 58.234375 -22.515625 58.234375 -19.171875 L 58.234375 0 L 42.25 0 L 42.25 -18.53125 C 42.25 -19.519531 41.988281 -20.253906 41.46875 -20.734375 C 40.945312 -21.210938 40.359375 -21.453125 39.703125 -21.453125 C 39.054688 -21.453125 38.472656 -21.203125 37.953125 -20.703125 C 37.441406 -20.203125 37.1875 -19.453125 37.1875 -18.453125 Z M 37.1875 0 "/></g></g></g><g fill="#78350f" fill-opacity="1"><g transform="translate(154.583479, 193.127843)"><g><path d="M 0.65625 -36.46875 L 16.640625 -36.46875 L 16.640625 0 L 0.65625 0 Z M 0.65625 -36.46875 "/></g></g></g><g fill="#78350f" fill-opacity="1"><g transform="translate(171.871415, 193.127843)"><g><path d="M 16.578125 0 L 0.578125 0 L 0.578125 -18.71875 C 0.578125 -21.925781 1.109375 -24.722656 2.171875 -27.109375 C 3.234375 -29.492188 4.664062 -31.472656 6.46875 -33.046875 C 8.269531 -34.628906 10.285156 -35.8125 12.515625 -36.59375 C 14.742188 -37.375 17.03125 -37.765625 19.375 -37.765625 C 21.707031 -37.765625 24 -37.375 26.25 -36.59375 C 28.507812 -35.8125 30.523438 -34.628906 32.296875 -33.046875 C 34.078125 -31.472656 35.5 -29.492188 36.5625 -27.109375 C 37.625 -24.722656 38.15625 -21.925781 38.15625 -18.71875 L 38.15625 0 L 22.171875 0 L 22.171875 -18.71875 C 22.171875 -19.675781 21.882812 -20.425781 21.3125 -20.96875 C 20.75 -21.507812 20.101562 -21.78125 19.375 -21.78125 C 18.675781 -21.78125 18.035156 -21.507812 17.453125 -20.96875 C 16.867188 -20.425781 16.578125 -19.675781 16.578125 -18.71875 Z M 16.578125 0 "/></g></g></g><g fill="#78350f" fill-opacity="1"><g transform="translate(210.606802, 193.127843)"><g><path d="M 0.65625 -36.46875 L 16.640625 -36.46875 L 16.640625 0 L 0.65625 0 Z M 0.65625 -36.46875 "/></g></g></g><g fill="#78350f" fill-opacity="1"><g transform="translate(92.251477, 237.75741)"><g><path d="M 23.796875 -36.46875 L 23.796875 -21.1875 L 17.609375 -21.1875 C 16.960938 -21.1875 16.640625 -20.863281 16.640625 -20.21875 L 16.640625 0 L 0.65625 0 L 0.65625 -19.5625 C 0.65625 -22.988281 1.390625 -25.957031 2.859375 -28.46875 C 4.328125 -30.976562 6.375 -32.9375 9 -34.34375 C 11.625 -35.757812 14.625 -36.46875 18 -36.46875 Z M 23.796875 -36.46875 "/></g></g></g><g fill="#78350f" fill-opacity="1"><g transform="translate(116.623568, 237.75741)"><g><path d="M 21.3125 -16.4375 C 22.269531 -16.957031 22.832031 -17.679688 23 -18.609375 C 23.175781 -19.546875 22.972656 -20.394531 22.390625 -21.15625 C 21.804688 -21.914062 20.84375 -22.296875 19.5 -22.296875 C 18.375 -22.335938 17.519531 -22.019531 16.9375 -21.34375 C 16.351562 -20.675781 16.046875 -19.898438 16.015625 -19.015625 C 15.992188 -18.128906 16.253906 -17.335938 16.796875 -16.640625 C 17.335938 -15.941406 18.195312 -15.59375 19.375 -15.59375 L 37.765625 -15.59375 L 37.765625 0 L 19.375 0 C 16.769531 0 14.335938 -0.484375 12.078125 -1.453125 C 9.828125 -2.429688 7.835938 -3.785156 6.109375 -5.515625 C 4.378906 -7.253906 3.023438 -9.25 2.046875 -11.5 C 1.066406 -13.757812 0.578125 -16.1875 0.578125 -18.78125 C 0.578125 -22.207031 1.347656 -25.328125 2.890625 -28.140625 C 4.429688 -30.960938 6.617188 -33.226562 9.453125 -34.9375 C 12.296875 -36.644531 15.664062 -37.519531 19.5625 -37.5625 C 21.601562 -37.5625 23.648438 -37.367188 25.703125 -36.984375 C 27.765625 -36.597656 29.703125 -35.863281 31.515625 -34.78125 C 33.335938 -33.695312 34.859375 -32.09375 36.078125 -29.96875 C 36.597656 -29.050781 36.972656 -27.960938 37.203125 -26.703125 C 37.441406 -25.453125 37.53125 -24.164062 37.46875 -22.84375 C 37.40625 -21.519531 37.132812 -20.285156 36.65625 -19.140625 C 36.175781 -17.992188 35.441406 -17.09375 34.453125 -16.4375 Z M 21.3125 -16.4375 "/></g></g></g><g fill="#78350f" fill-opacity="1"><g transform="translate(154.968998, 237.75741)"><g><path d="M 0.65625 -45.5625 L 16.640625 -45.5625 L 16.640625 0 L 0.65625 0 Z M 0.65625 -45.5625 "/></g></g></g><g fill="#78350f" fill-opacity="1"><g transform="translate(172.256934, 237.75741)"><g><path d="M 19.4375 -37.5625 C 22.03125 -37.5625 24.453125 -37.070312 26.703125 -36.09375 C 28.960938 -35.125 30.957031 -33.785156 32.6875 -32.078125 C 34.425781 -30.367188 35.78125 -28.375 36.75 -26.09375 C 37.726562 -23.820312 38.21875 -21.382812 38.21875 -18.78125 L 38.21875 0 L 22.625 0 L 22.625 -18.78125 C 22.625 -19.644531 22.304688 -20.398438 21.671875 -21.046875 C 21.046875 -21.703125 20.300781 -22.03125 19.4375 -22.03125 C 18.519531 -22.03125 17.75 -21.703125 17.125 -21.046875 C 16.5 -20.398438 16.1875 -19.644531 16.1875 -18.78125 C 16.1875 -17.914062 16.5 -17.15625 17.125 -16.5 C 17.75 -15.851562 18.519531 -15.53125 19.4375 -15.53125 L 21.703125 -15.53125 L 21.703125 0 L 19.4375 0 C 16.832031 0 14.390625 -0.484375 12.109375 -1.453125 C 9.835938 -2.429688 7.847656 -3.785156 6.140625 -5.515625 C 4.429688 -7.253906 3.085938 -9.25 2.109375 -11.5 C 1.140625 -13.757812 0.65625 -16.1875 0.65625 -18.78125 C 0.65625 -21.382812 1.140625 -23.820312 2.109375 -26.09375 C 3.085938 -28.375 4.429688 -30.367188 6.140625 -32.078125 C 7.847656 -33.785156 9.835938 -35.125 12.109375 -36.09375 C 14.390625 -37.070312 16.832031 -37.5625 19.4375 -37.5625 Z M 19.4375 -37.5625 "/></g></g></g><g fill="#78350f" fill-opacity="1"><g transform="translate(211.057301, 237.75741)"><g><path d="M 17.6875 0 C 14.34375 0 11.378906 -0.613281 8.796875 -1.84375 C 6.222656 -3.082031 4.207031 -4.9375 2.75 -7.40625 C 1.300781 -9.875 0.578125 -12.972656 0.578125 -16.703125 L 0.578125 -45.5625 L 16.578125 -45.5625 L 16.578125 -36.46875 L 27.6875 -36.46875 L 27.6875 -21.390625 L 16.578125 -21.390625 L 16.578125 -15.984375 C 16.578125 -15.421875 16.859375 -15.140625 17.421875 -15.140625 L 27.6875 -15.140625 L 27.6875 0 Z M 17.6875 0 "/></g></g></g><g fill="#78350f" fill-opacity="1"><g transform="translate(239.458914, 237.75741)"><g><path d="M 0.65625 -36.46875 L 16.640625 -36.46875 L 16.640625 0 L 0.65625 0 Z M 0.65625 -36.46875 "/></g></g></g><g fill="#78350f" fill-opacity="1"><g transform="translate(256.74685, 237.75741)"><g><path d="M 19.828125 1.046875 C 17.179688 1.046875 14.6875 0.546875 12.34375 -0.453125 C 10.007812 -1.453125 7.953125 -2.835938 6.171875 -4.609375 C 4.398438 -6.390625 3.015625 -8.445312 2.015625 -10.78125 C 1.015625 -13.125 0.515625 -15.617188 0.515625 -18.265625 C 0.515625 -20.953125 1.015625 -23.453125 2.015625 -25.765625 C 3.015625 -28.085938 4.398438 -30.132812 6.171875 -31.90625 C 7.953125 -33.6875 10.007812 -35.070312 12.34375 -36.0625 C 14.6875 -37.0625 17.179688 -37.5625 19.828125 -37.5625 C 22.515625 -37.5625 25.015625 -37.0625 27.328125 -36.0625 C 29.648438 -35.070312 31.695312 -33.6875 33.46875 -31.90625 C 35.25 -30.132812 36.632812 -28.085938 37.625 -25.765625 C 38.625 -23.453125 39.125 -20.953125 39.125 -18.265625 C 39.125 -15.617188 38.625 -13.125 37.625 -10.78125 C 36.632812 -8.445312 35.25 -6.390625 33.46875 -4.609375 C 31.695312 -2.835938 29.648438 -1.453125 27.328125 -0.453125 C 25.015625 0.546875 22.515625 1.046875 19.828125 1.046875 Z M 19.828125 -21.578125 C 18.910156 -21.578125 18.128906 -21.25 17.484375 -20.59375 C 16.835938 -19.945312 16.515625 -19.171875 16.515625 -18.265625 C 16.515625 -17.359375 16.835938 -16.578125 17.484375 -15.921875 C 18.128906 -15.273438 18.910156 -14.953125 19.828125 -14.953125 C 20.734375 -14.953125 21.507812 -15.273438 22.15625 -15.921875 C 22.8125 -16.578125 23.140625 -17.359375 23.140625 -18.265625 C 23.140625 -19.171875 22.8125 -19.945312 22.15625 -20.59375 C 21.507812 -21.25 20.734375 -21.578125 19.828125 -21.578125 Z M 19.828125 -21.578125 "/></g></g></g><g fill="#78350f" fill-opacity="1"><g transform="translate(296.262129, 237.75741)"><g><path d="M 16.578125 0 L 0.578125 0 L 0.578125 -18.71875 C 0.578125 -21.925781 1.109375 -24.722656 2.171875 -27.109375 C 3.234375 -29.492188 4.664062 -31.472656 6.46875 -33.046875 C 8.269531 -34.628906 10.285156 -35.8125 12.515625 -36.59375 C 14.742188 -37.375 17.03125 -37.765625 19.375 -37.765625 C 21.707031 -37.765625 24 -37.375 26.25 -36.59375 C 28.507812 -35.8125 30.523438 -34.628906 32.296875 -33.046875 C 34.078125 -31.472656 35.5 -29.492188 36.5625 -27.109375 C 37.625 -24.722656 38.15625 -21.925781 38.15625 -18.71875 L 38.15625 0 L 22.171875 0 L 22.171875 -18.71875 C 22.171875 -19.675781 21.882812 -20.425781 21.3125 -20.96875 C 20.75 -21.507812 20.101562 -21.78125 19.375 -21.78125 C 18.675781 -21.78125 18.035156 -21.507812 17.453125 -20.96875 C 16.867188 -20.425781 16.578125 -19.675781 16.578125 -18.71875 Z M 16.578125 0 "/></g></g></g><g fill="#78350f" fill-opacity="1"><g transform="translate(334.997494, 237.75741)"><g><path d="M 0.578125 0 L 0.578125 -15.140625 L 8.390625 -15.140625 C 8.296875 -15.316406 8.195312 -15.476562 8.09375 -15.625 C 7.988281 -15.78125 7.890625 -15.925781 7.796875 -16.0625 L 3.375 -16.0625 C 1.863281 -18.226562 1.0625 -20.5 0.96875 -22.875 C 0.882812 -25.257812 1.320312 -27.363281 2.28125 -29.1875 C 3.363281 -31.269531 4.738281 -32.835938 6.40625 -33.890625 C 8.070312 -34.953125 9.976562 -35.65625 12.125 -36 C 14.269531 -36.351562 16.578125 -36.53125 19.046875 -36.53125 L 37.5625 -36.53125 L 37.5625 -21.84375 L 19.046875 -21.84375 C 17.785156 -21.84375 16.816406 -21.394531 16.140625 -20.5 C 15.472656 -19.613281 15.226562 -18.675781 15.40625 -17.6875 C 15.582031 -16.90625 15.984375 -16.1875 16.609375 -15.53125 C 17.234375 -14.882812 18.085938 -14.5625 19.171875 -14.5625 C 20.472656 -14.5625 21.40625 -14.984375 21.96875 -15.828125 C 22.53125 -16.671875 22.722656 -17.613281 22.546875 -18.65625 C 22.378906 -19.695312 21.796875 -20.457031 20.796875 -20.9375 L 33.796875 -20.9375 C 35.222656 -19.414062 36.195312 -17.820312 36.71875 -16.15625 C 37.238281 -14.488281 37.421875 -12.875 37.265625 -11.3125 C 37.117188 -9.75 36.722656 -8.335938 36.078125 -7.078125 C 34.992188 -5.003906 33.601562 -3.46875 31.90625 -2.46875 C 30.21875 -1.46875 28.289062 -0.804688 26.125 -0.484375 C 23.957031 -0.160156 21.640625 0 19.171875 0 Z M 0.578125 0 "/></g></g></g></svg>