<?xml version="1.0" encoding="UTF-8"?>
<svg version="1.1" xmlns="http://www.w3.org/2000/svg" width="512" height="512">
<path d="M0 0 C1.69358243 -0.00577602 3.38715857 -0.01372698 5.08072186 -0.02363622 C9.68850201 -0.04432977 14.29575821 -0.03427494 18.90353918 -0.01870513 C23.89069343 -0.00732318 28.87776187 -0.02488805 33.86489868 -0.03860474 C43.61651483 -0.06076903 53.36793791 -0.05606638 63.11956143 -0.04154153 C71.04907384 -0.03022241 78.97853236 -0.02872993 86.90805054 -0.03416061 C88.03916124 -0.03492678 89.17027194 -0.03569294 90.33565873 -0.03648233 C92.6339125 -0.03808105 94.93216625 -0.03970212 97.23041999 -0.04134528 C118.7512906 -0.05558285 140.27205449 -0.03924135 161.7929076 -0.01234345 C180.23512006 0.00999348 198.67717514 0.00611279 217.11938477 -0.01693726 C238.56635152 -0.04373049 260.01322488 -0.05420973 281.46020603 -0.03887594 C283.74972596 -0.03728329 286.03924591 -0.03571144 288.32876587 -0.03416061 C289.45507988 -0.03338924 290.58139389 -0.03261786 291.74183863 -0.03182311 C299.65639638 -0.02751668 307.57089459 -0.03476982 315.48544312 -0.04655838 C325.1384414 -0.06062109 334.79123654 -0.05670432 344.44421172 -0.03015466 C349.36376603 -0.01706717 354.28298236 -0.01177713 359.20253372 -0.02840042 C363.71553248 -0.04341866 368.22788346 -0.03491841 372.74082434 -0.00851266 C374.36376298 -0.00297758 375.9867576 -0.00565467 377.60965955 -0.0178916 C393.18421185 -0.12621725 406.98870964 2.96653096 419.6184082 12.63491821 C420.46918945 13.28073853 421.3199707 13.92655884 422.1965332 14.59194946 C434.09148192 24.42535032 441.78845457 38.41179436 443.90809157 53.72815108 C444.34166816 58.81891269 444.2918178 63.91165519 444.25332642 69.01651001 C444.25910243 70.71009244 444.2670534 72.40366858 444.27696264 74.09723186 C444.29765619 78.70501202 444.28760136 83.31226822 444.27203155 87.92004919 C444.2606496 92.90720344 444.27821447 97.89427188 444.29193115 102.88140869 C444.31409545 112.63302484 444.30939279 122.38444792 444.29486795 132.13607144 C444.28354883 140.06558385 444.28205635 147.99504237 444.28748703 155.92456055 C444.28863628 157.6212266 444.28863628 157.6212266 444.28980874 159.35216874 C444.29140746 161.65042251 444.29302853 163.94867626 444.2946717 166.24693 C444.30890926 187.76780061 444.29256777 209.2885645 444.26566987 230.80941761 C444.24333293 249.25163007 444.24721362 267.69368515 444.27026367 286.13589478 C444.2970569 307.58286153 444.30753615 329.02973489 444.29220235 350.47671604 C444.29060971 352.76623597 444.28903785 355.05575592 444.28748703 357.34527588 C444.28632996 359.0347469 444.28632996 359.0347469 444.28514952 360.75834864 C444.2808431 368.67290639 444.28809624 376.5874046 444.2998848 384.50195312 C444.31394751 394.15495141 444.31003074 403.80774655 444.28348108 413.46072173 C444.27039358 418.38027604 444.26510355 423.29949237 444.28172684 428.21904373 C444.29674508 432.73204249 444.28824483 437.24439347 444.26183908 441.75733435 C444.25630399 443.38027299 444.25898109 445.00326761 444.27121802 446.62616956 C444.37954367 462.20072186 441.28679546 476.00521964 431.6184082 488.63491821 C430.97258789 489.48569946 430.32676758 490.33648071 429.66137695 491.21304321 C420.20196113 502.65560188 407.23356419 510.07799369 392.6184082 512.63491821 C383.28153896 513.49429098 373.87408907 513.30488766 364.50612283 513.2406826 C360.86502406 513.22033046 357.22395119 513.22646482 353.58280945 513.22879028 C347.48492211 513.22873705 341.38734815 513.20916467 335.28955078 513.1769104 C328.24895563 513.13984945 321.20876731 513.13126318 314.1680873 513.13820791 C307.36460363 513.14451422 300.56125862 513.13376801 293.75780296 513.11424255 C290.87314052 513.10608868 287.98854911 513.10335516 285.10387611 513.10493469 C281.08548089 513.10597766 277.06762124 513.08179707 273.04931641 513.05484009 C271.85813202 513.05777069 270.66694763 513.06070129 269.43966675 513.0637207 C268.34524765 513.05237091 267.25082855 513.04102112 266.12324524 513.02932739 C265.17522191 513.02559868 264.22719858 513.02186996 263.25044727 513.01802826 C258.61775822 512.34371087 256.16100008 510.15970669 252.84517002 506.95267487 C250.20983028 503.02615885 249.91683744 500.12124602 249.99021912 495.55081177 C249.98312473 494.7536259 249.97603034 493.95644004 249.96872097 493.13509703 C249.95116389 490.47243284 249.96923329 487.81123287 249.98730469 485.14859009 C249.98216498 483.2362756 249.97488332 481.32396584 249.96562195 479.41166687 C249.94710635 474.22358982 249.96004768 469.03602663 249.97971225 463.84797096 C249.99609863 458.41753161 249.98728586 452.98712481 249.98219299 447.55667114 C249.97767204 438.43732496 249.9935421 429.31818389 250.02148438 420.19888306 C250.0535362 409.65712774 250.05352049 399.11574236 250.03626961 388.57396078 C250.02040347 378.43127398 250.02713867 368.28872275 250.04420662 358.14604187 C250.05107753 353.83036183 250.05004421 349.51479045 250.04266167 345.19911194 C250.03499814 340.11660561 250.04712739 335.03452008 250.07451057 329.95208549 C250.08139474 328.087272 250.08149204 326.2224192 250.07429504 324.35760689 C250.06559939 321.8109439 250.0815575 319.26557917 250.10374451 316.71902466 C250.09550374 315.98185951 250.08726297 315.24469436 250.07877249 314.48519087 C250.16026268 309.4139778 251.46244886 306.56045047 254.6184082 302.63491821 C258.66414205 299.07957634 261.99340121 298.5099182 267.28320312 298.52139282 C268.44418015 298.52146835 269.60515717 298.52154388 270.80131531 298.5216217 C272.68110832 298.52936363 272.68110832 298.52936363 274.59887695 298.53726196 C275.88200272 298.53867691 277.16512848 298.54009186 278.48713684 298.54154968 C281.89511061 298.54536416 285.30304163 298.55518531 288.71099854 298.56625366 C292.18989473 298.57649078 295.66879805 298.58110704 299.14770508 298.58609009 C305.97131052 298.59627761 312.79479863 298.61585193 319.6184082 298.63491821 C319.6184082 284.77491821 319.6184082 270.91491821 319.6184082 256.63491821 C313.45991211 256.70452759 313.45991211 256.70452759 307.17700195 256.77554321 C303.88956436 256.80129313 300.60215552 256.82297499 297.31467438 256.84191895 C293.8518274 256.86298358 290.38937631 256.8911004 286.92675781 256.93667603 C282.94772223 256.98871712 278.96884454 257.00791281 274.98950195 257.02554321 C273.75695175 257.04618835 272.52440155 257.0668335 271.25450134 257.08810425 C264.50147967 257.08986206 259.96280181 256.94553409 254.6184082 252.63491821 C251.00289833 248.10842888 250.11531313 245.10674599 250.10083008 239.34780884 C250.09031616 238.29293526 250.09031616 238.29293526 250.07958984 237.2167511 C250.06208203 234.90781368 250.07360558 232.60011661 250.0871582 230.29116821 C250.08446118 228.677437 250.08057701 227.06370737 250.07556152 225.44998169 C250.06967629 222.07413198 250.07819754 218.69870672 250.09692383 215.32290649 C250.11971327 211.00522321 250.10658488 206.68853459 250.08263397 202.37088776 C250.06814931 199.04046189 250.0727941 195.71027013 250.08314514 192.37983704 C250.08580508 190.78829326 250.08256852 189.19672793 250.07322693 187.60520935 C250.06301664 185.37691305 250.07862184 183.15020612 250.10083008 180.92202759 C250.10401245 179.65661133 250.10719482 178.39119507 250.11047363 177.08743286 C250.88327599 171.8345684 253.32441348 168.77486594 257.2434082 165.32241821 C260.86895102 162.74637463 262.74704007 162.51182001 267.16967773 162.52139282 C268.33073029 162.52146835 269.49178284 162.52154388 270.6880188 162.5216217 C271.94637543 162.52678299 273.20473206 162.53194427 274.5012207 162.53726196 C275.78576141 162.53867691 277.07030212 162.54009186 278.39376831 162.54154968 C281.80997662 162.5453691 285.22614246 162.55519448 288.64233398 162.56625366 C292.12784236 162.57648014 295.61335779 162.58110471 299.09887695 162.58609009 C305.93875822 162.59628669 312.77852284 162.61585971 319.6184082 162.63491821 C319.6184082 148.77491821 319.6184082 134.91491821 319.6184082 120.63491821 C311.76555822 120.68173103 303.91427179 120.73247153 296.06200409 120.81871033 C292.40411148 120.85782814 288.74645391 120.89033134 285.08837891 120.90591431 C281.55430857 120.92123926 278.02087894 120.95595655 274.48709679 121.00322723 C272.50621231 121.0249321 270.52514616 121.02737824 268.54414368 121.02926636 C251.64577351 121.29792024 237.42102036 126.94834604 225.3840332 138.74819946 C210.60232347 154.17713095 208.32338671 172.9572498 208.34401321 193.44560432 C208.3450012 195.61194998 208.33178359 197.77782938 208.31503296 199.94410706 C208.26938136 206.08962762 208.24411507 212.23508253 208.23754883 218.38076782 C208.23252735 222.17192059 208.20827735 225.96255967 208.17222214 229.75353813 C208.16246913 231.18595735 208.1600675 232.61844745 208.16539383 234.05088997 C208.17248675 236.04774814 208.15305822 238.04464671 208.13256836 240.04141235 C208.12971832 241.17309341 208.12686829 242.30477448 208.12393188 243.4707489 C207.29355403 248.66824253 204.72912119 251.73905287 200.70410156 254.98550415 C195.28468716 257.75979337 189.17676141 257.12486109 183.24731445 257.02554321 C181.33111549 257.01705353 181.33111549 257.01705353 179.37620544 257.00839233 C176.00071923 256.98985642 172.62633978 256.95400116 169.25115967 256.90957642 C165.79880443 256.86845635 162.34633088 256.85012577 158.89379883 256.83023071 C152.13471748 256.78962344 145.37755817 256.71131677 138.6184082 256.63491821 C138.6184082 270.49491821 138.6184082 284.35491821 138.6184082 298.63491821 C142.73567383 298.60011353 146.85293945 298.56530884 151.0949707 298.52944946 C154.38794177 298.51014233 157.68089673 298.49387899 160.97389221 298.47966766 C164.44454396 298.46385762 167.91497416 298.44274725 171.38549805 298.40859985 C175.37196129 298.36962361 179.3583356 298.35518184 183.3449707 298.34194946 C184.58268219 298.32646561 185.82039368 298.31098175 187.09561157 298.29502869 C197.90631257 298.2929183 197.90631257 298.2929183 202.6184082 301.63491821 C207.10808425 306.60996464 207.76643486 309.68008623 207.7588501 316.20677185 C207.76330678 317.39235712 207.76330678 317.39235712 207.7678535 318.6018936 C207.77656337 321.26501198 207.77805067 323.92808553 207.77954102 326.59121704 C207.78416758 328.49470618 207.78919202 330.3981944 207.79458618 332.30168152 C207.80772796 337.48355137 207.81415863 342.66540826 207.81859684 347.84729218 C207.82152477 351.08262638 207.82562904 354.31795701 207.83010101 357.55328941 C207.84378077 367.66977765 207.85344502 377.78625776 207.8573029 387.9027546 C207.86178467 399.59205032 207.87933608 411.28122916 207.9083035 422.97048932 C207.9299007 431.99813637 207.94000614 441.02575049 207.94134402 450.05342311 C207.94239348 455.44879085 207.94833113 460.84404881 207.96616364 466.23938942 C207.98261035 471.31434699 207.98481637 476.38911185 207.97602463 481.46408653 C207.97525242 483.32772207 207.97962106 485.19136782 207.98948288 487.05497742 C208.00214962 489.59758722 207.99635451 492.13950903 207.98590088 494.68211365 C207.99798549 495.79048693 207.99798549 495.79048693 208.01031423 496.9212516 C207.9550989 502.65658077 206.3512156 505.68550989 202.6184082 509.88491821 C198.64618694 513.36061182 194.19208898 512.78577844 189.20307922 512.78881836 C188.33384124 512.79320061 187.46460327 512.79758287 186.56902474 512.80209792 C183.64448438 512.81549522 180.71997416 512.82166707 177.79541016 512.82778931 C175.70272688 512.83569 173.61004497 512.84395894 171.5173645 512.85256958 C164.63048608 512.87880964 157.74360155 512.8941066 150.85668945 512.90835571 C148.48368005 512.91371598 146.11067069 512.91909349 143.73766136 512.92448807 C133.85959684 512.94612629 123.98153396 512.9648591 114.10345173 512.97611046 C99.96523083 512.9923209 85.82728605 513.02541742 71.68916923 513.08251131 C61.74074568 513.12130835 51.79239565 513.14075513 41.84389848 513.14603102 C35.9076457 513.1496732 29.97168727 513.16157259 24.03551674 513.19413376 C18.44006316 513.22438344 12.84507939 513.23046616 7.24956131 513.21875 C5.20670119 513.21853062 3.16381822 513.22672158 1.12103462 513.24440384 C-15.869732 513.38334745 -30.44977181 511.30011581 -44.3815918 500.63491821 C-45.65776367 499.66618774 -45.65776367 499.66618774 -46.9597168 498.67788696 C-58.85466552 488.8444861 -66.55163816 474.85804206 -68.67127517 459.54168534 C-69.10485175 454.45092374 -69.0550014 449.35818124 -69.01651001 444.25332642 C-69.02228603 442.55974399 -69.03023699 440.86616785 -69.04014623 439.17260456 C-69.06083978 434.56482441 -69.05078495 429.9575682 -69.03521514 425.34978724 C-69.02383319 420.36263299 -69.04139806 415.37556455 -69.05511475 410.38842773 C-69.07727904 400.63681159 -69.07257639 390.88538851 -69.05805154 381.13376498 C-69.04673242 373.20425258 -69.04523994 365.27479405 -69.05067062 357.34527588 C-69.05143679 356.21416518 -69.05220295 355.08305447 -69.05299234 353.91766769 C-69.05459106 351.61941392 -69.05621213 349.32116016 -69.05785529 347.02290642 C-69.07209286 325.50203582 -69.05575136 303.98127192 -69.02885346 282.46041882 C-69.00651653 264.01820635 -69.01039722 245.57615128 -69.03344727 227.13394165 C-69.0602405 205.6869749 -69.07071974 184.24010154 -69.05538595 162.79312038 C-69.0537933 160.50360045 -69.05222144 158.21408051 -69.05067062 155.92456055 C-69.04989925 154.79824653 -69.04912787 153.67193252 -69.04833312 152.51148778 C-69.04402669 144.59693004 -69.05127983 136.68243182 -69.06306839 128.7678833 C-69.0771311 119.11488502 -69.07321433 109.46208988 -69.04666467 99.80911469 C-69.03357718 94.88956039 -69.02828714 89.97034405 -69.04491043 85.05079269 C-69.05992867 80.53779394 -69.05142842 76.02544296 -69.02502267 71.51250207 C-69.01948759 69.88956343 -69.02216468 68.26656881 -69.03440161 66.64366686 C-69.14272726 51.06911457 -66.04997905 37.26461678 -56.3815918 24.63491821 C-55.73577148 23.78413696 -55.08995117 22.93335571 -54.42456055 22.05679321 C-40.34001038 5.01945238 -21.19890305 -0.15984298 0 0 Z M-30.70999968 42.31113052 C-37.56510241 51.84084963 -38.10319552 61.86733136 -38.01651001 73.18276978 C-38.02228059 74.83450298 -38.03022797 76.48622976 -38.04014623 78.13794327 C-38.06091432 82.64847029 -38.0507504 87.15846469 -38.03521514 91.668993 C-38.02386422 96.5443485 -38.04138285 101.41961483 -38.05511475 106.29495239 C-38.07731183 115.83455201 -38.07256169 125.37395458 -38.05805154 134.91356182 C-38.04674541 142.66871949 -38.04523435 150.42382205 -38.05067062 158.1789856 C-38.05143679 159.28403954 -38.05220295 160.38909348 -38.05299234 161.52763391 C-38.05459101 163.77274674 -38.05621208 166.01785955 -38.05785529 168.26297235 C-38.07210246 189.30013549 -38.05573625 210.33718957 -38.02885346 231.37433481 C-38.00651565 249.41307346 -38.01039606 267.45165122 -38.03344727 285.49038696 C-38.06022348 306.45385765 -38.07072926 327.41723283 -38.05538595 348.38071823 C-38.05379325 350.61742908 -38.0522214 352.85413995 -38.05067062 355.09085083 C-38.04989925 356.19126654 -38.04912787 357.29168225 -38.04833312 358.42544389 C-38.04402159 366.16850982 -38.05129088 373.91151501 -38.06306839 381.65457153 C-38.07711214 391.0947837 -38.07325395 400.53478808 -38.04666467 409.97497654 C-38.0335518 414.78869623 -38.02833092 419.60206985 -38.04491043 424.41578674 C-38.05987549 428.82758566 -38.05151442 433.2387197 -38.02502267 437.65045881 C-38.01946537 439.24114438 -38.02221594 440.83188682 -38.03440161 442.42253542 C-38.11649485 454.03478478 -36.67656313 464.03141261 -28.8190918 473.07241821 C-18.44757735 482.31243769 -6.74733768 482.34230497 6.33032227 482.20254517 C8.19413718 482.20113235 10.05795488 482.20193123 11.92176819 482.20475769 C16.94800481 482.20618413 21.97363698 482.17692006 26.99973392 482.1418879 C32.26474452 482.11049497 37.52977109 482.1076835 42.79486084 482.10176086 C52.75002232 482.08626031 62.70490714 482.0452833 72.65994716 481.99501342 C86.122773 481.92851535 99.58567523 481.9016548 113.04862404 481.87250233 C134.23875905 481.82557858 155.42831044 481.72594097 176.6184082 481.63491821 C176.6184082 431.47491821 176.6184082 381.31491821 176.6184082 329.63491821 C157.4784082 329.30491821 138.3384082 328.97491821 118.6184082 328.63491821 C110.6184082 324.63491821 110.6184082 324.63491821 108.6184082 318.63491821 C108.51207468 316.03535015 108.46116853 313.46219609 108.45727539 310.86221313 C108.45231049 310.07162003 108.44734558 309.28102692 108.44223022 308.46647644 C108.4276184 305.84943777 108.420808 303.23245973 108.4152832 300.61538696 C108.40953065 298.79558816 108.40377293 296.97578937 108.39801025 295.1559906 C108.38750285 291.33866086 108.38165858 287.52135217 108.37817383 283.70401001 C108.3726917 278.81811355 108.34866861 273.93249613 108.32020187 269.04668713 C108.301556 265.28654677 108.29636884 261.52647334 108.29483795 257.76629066 C108.29181496 255.96540108 108.28379836 254.16451258 108.27065277 252.36366844 C108.2535525 249.84083354 108.25548217 247.31867661 108.26196289 244.79580688 C108.25274811 244.05533112 108.24353333 243.31485535 108.23403931 242.55194092 C108.28211733 236.5617926 109.71384443 232.53353146 113.96264648 228.29800415 C119.04424518 225.28895023 125.4090006 226.03110472 131.1105957 226.02554321 C132.41167267 226.00900696 133.71274963 225.9924707 135.05325317 225.97543335 C138.49569607 225.93190073 141.93788483 225.9117926 145.3805542 225.896698 C148.90009501 225.87707552 152.4193634 225.83511156 155.9387207 225.79507446 C162.83184681 225.7199258 169.7249626 225.66954182 176.6184082 225.63491821 C176.62427444 225.03817795 176.63014069 224.44143768 176.63618469 223.82661438 C176.70101799 217.51381402 176.78564493 211.20148209 176.88085938 204.8890686 C176.91374703 202.54538215 176.94188632 200.20162336 176.96484375 197.8578186 C177.27419344 167.08739775 180.97017923 138.23898091 203.6105957 115.41616821 C225.25303816 94.79337633 252.19437327 89.30454908 281.12231445 89.33413696 C282.7417766 89.33023574 284.36123774 89.32589823 285.98069763 89.32115173 C289.3395422 89.3137695 292.69828144 89.31392559 296.05712891 89.31924438 C300.3473437 89.32508504 304.63713318 89.30795968 308.92727757 89.28489971 C312.25681547 89.27014695 315.58625056 89.2692918 318.91581535 89.27240944 C320.49816683 89.27189886 322.08052446 89.26671095 323.6628437 89.25659752 C325.87040096 89.2441942 328.07712308 89.25104276 330.28466797 89.26260376 C331.53546646 89.26197433 332.78626495 89.26134491 334.07496643 89.26069641 C339.36861821 89.81975736 343.29005758 91.2016978 346.9934082 95.19741821 C349.77497186 99.36976369 349.77234369 102.50164873 349.77954102 107.40176392 C349.78450592 108.20357086 349.78947083 109.00537781 349.79458618 109.83148193 C349.8092233 112.49122976 349.81601276 115.15091793 349.8215332 117.81069946 C349.82728387 119.65674339 349.83304161 121.50278729 349.83880615 123.34883118 C349.84932088 127.22341185 349.8551603 131.09797175 349.85864258 134.9725647 C349.86412495 139.93593575 349.88814546 144.89903214 349.91661453 149.86231709 C349.93524532 153.67732035 349.94044677 157.49225756 349.94197845 161.30730247 C349.94500508 163.13692919 349.95303393 164.96655475 349.96616364 166.79613686 C349.98323162 169.35759942 349.98134204 171.91839245 349.97485352 174.47988892 C349.9840683 175.23488174 349.99328308 175.98987457 350.0027771 176.76774597 C349.9669392 181.28746955 349.19696979 183.94379213 346.6184082 187.63491821 C346.6184082 188.29491821 346.6184082 188.95491821 346.6184082 189.63491821 C341.90480924 191.54583671 338.15338806 192.76130925 333.04541016 192.84024048 C331.90445389 192.8601857 330.76349762 192.88013092 329.58796692 192.90068054 C327.74098457 192.92574928 327.74098457 192.92574928 325.85668945 192.95132446 C324.59575974 192.97210556 323.33483002 192.99288666 322.03569031 193.01429749 C318.68695362 193.06863943 315.33820615 193.11887987 311.98937988 193.16714478 C308.57074601 193.21742178 305.15219904 193.27302354 301.73364258 193.32827759 C295.02863117 193.43625863 288.32357093 193.53534708 281.6184082 193.63491821 C281.6184082 204.19491821 281.6184082 214.75491821 281.6184082 225.63491821 C287.90258789 225.67359009 287.90258789 225.67359009 294.3137207 225.71304321 C297.66409729 225.74474116 301.01438016 225.78039243 304.36468506 225.81871033 C307.89589372 225.85801619 311.42685165 225.89043066 314.95825195 225.90591431 C319.01464572 225.92402147 323.07011308 225.97399144 327.1262207 226.02554321 C328.38580597 226.02677185 329.64539124 226.02800049 330.94314575 226.02926636 C342.18667461 226.2170309 342.18667461 226.2170309 346.6184082 230.63491821 C349.51269189 235.34315192 350.05123676 239.33905148 350.0065918 244.74819946 C350.01447723 245.93474625 350.01447723 245.93474625 350.02252197 247.14526367 C350.03566829 249.74618589 350.02700314 252.34649035 350.0168457 254.94741821 C350.01886799 256.76293047 350.02178071 258.57844193 350.02554321 260.39395142 C350.02995929 264.19342811 350.02355861 267.99269279 350.00952148 271.79214478 C349.99243002 276.65446347 350.00227504 281.51628533 350.02023888 286.37858582 C350.03109608 290.12588218 350.02762149 293.87306138 350.0198555 297.62036133 C350.01785885 299.41286274 350.02029393 301.20537491 350.02729416 302.99786377 C350.0349406 305.50607349 350.02326022 308.01348635 350.0065918 310.52163696 C350.01570084 311.62528091 350.01570084 311.62528091 350.0249939 312.7512207 C349.96743263 317.44308096 349.07222249 320.63980373 346.6184082 324.63491821 C331.15237382 338.65101187 285.47981792 329.56834218 281.6184082 329.63491821 C281.6184082 379.79491821 281.6184082 429.95491821 281.6184082 481.63491821 C298.8609082 481.73804321 316.1034082 481.84116821 333.8684082 481.94741821 C342.0054541 482.01569824 342.0054541 482.01569824 350.30688477 482.08535767 C355.21114323 482.10208989 355.21114323 482.10208989 360.11541748 482.11213684 C362.28327582 482.1197657 364.45111423 482.13724859 366.61883545 482.16279602 C386.8011306 482.6022092 386.8011306 482.6022092 404.0559082 473.07241821 C412.53664316 463.32206252 413.34813474 452.46281094 413.25332642 440.08706665 C413.259097 438.43533344 413.26704438 436.78360667 413.27696264 435.13189316 C413.29773073 430.62136613 413.28756681 426.11137174 413.27203155 421.60084343 C413.26068063 416.72548793 413.27819925 411.8502216 413.29193115 406.97488403 C413.31412824 397.43528442 413.30937809 387.89588184 413.29486795 378.3562746 C413.28356181 370.60111694 413.28205076 362.84601438 413.28748703 355.09085083 C413.2882532 353.98579689 413.28901936 352.88074295 413.28980874 351.74220252 C413.29140742 349.49708969 413.29302849 347.25197687 413.2946717 345.00686407 C413.30891887 323.96970094 413.29255265 302.93264686 413.26566987 281.89550161 C413.24333205 263.85676296 413.24721247 245.81818521 413.27026367 227.77944946 C413.29703989 206.81597877 413.30754567 185.8526036 413.29220235 164.88911819 C413.29060966 162.65240734 413.28903781 160.41569648 413.28748703 158.1789856 C413.28671565 157.07856989 413.28594427 155.97815418 413.28514952 154.84439254 C413.280838 147.10132661 413.28810728 139.35832142 413.2998848 131.61526489 C413.31392855 122.17505272 413.31007036 112.73504835 413.28348108 103.29485989 C413.2703682 98.48114019 413.26514732 93.66776657 413.28172684 88.85404968 C413.2966919 84.44225076 413.28833082 80.03111673 413.26183908 75.61937761 C413.25628177 74.02869205 413.25903235 72.43794961 413.27121802 70.84730101 C413.35254149 59.34393633 412.00380942 49.08181539 404.0559082 40.19741821 C394.46770701 31.6199003 383.33804793 30.90602098 371.07055664 31 C369.41882343 30.99422942 367.76709666 30.98628204 366.11538315 30.97636378 C361.60485612 30.95559569 357.09486173 30.96575961 352.58433342 30.98129487 C347.70897792 30.99264579 342.83371159 30.97512716 337.95837402 30.96139526 C328.41877441 30.93919818 318.87937183 30.94394832 309.3397646 30.95845847 C301.58460693 30.9697646 293.82950437 30.97127566 286.07434082 30.96583939 C284.96928688 30.96507322 283.86423294 30.96430706 282.72569251 30.96351767 C280.48057968 30.961919 278.23546686 30.96029793 275.99035406 30.95865472 C254.95319093 30.94440755 233.91613685 30.96077376 212.8789916 30.98765655 C194.84025295 31.00999436 176.8016752 31.00611395 158.76293945 30.98306274 C137.79946876 30.95628653 116.83609359 30.94578075 95.87260818 30.96112406 C93.63589733 30.96271676 91.39918647 30.96428861 89.16247559 30.96583939 C87.51185202 30.96699645 87.51185202 30.96699645 85.82788253 30.96817689 C78.0848166 30.97248842 70.34181141 30.96521913 62.59875488 30.95344162 C53.15854271 30.93939787 43.71853834 30.94325606 34.27834988 30.96984534 C29.46463018 30.98295821 24.65125656 30.98817909 19.83753967 30.97159958 C15.42574075 30.95663452 11.01460672 30.96499559 6.6028676 30.99148734 C5.01218204 30.99704464 3.4214396 30.99429407 1.830791 30.9821084 C-10.61852977 30.89409745 -22.01245705 32.58876219 -30.70999968 42.31113052 Z " fill="#000000" transform="translate(68.381591796875,-0.634918212890625)"/>
</svg>
