<?xml version="1.0" encoding="UTF-8"?>
<svg version="1.1" xmlns="http://www.w3.org/2000/svg" width="499" height="126">
<path d="M0 0 C164.67 0 329.34 0 499 0 C499 41.58 499 83.16 499 126 C334.33 126 169.66 126 0 126 C0 84.42 0 42.84 0 0 Z " fill="#FCFCFC" transform="translate(0,0)"/>
<path d="M0 0 C42.24 0 84.48 0 128 0 C128 32.34 128 64.68 128 98 C85.76 98 43.52 98 0 98 C0 65.66 0 33.32 0 0 Z " fill="#010101" transform="translate(14,14)"/>
<path d="M0 0 C164.67 0 329.34 0 499 0 C499 41.58 499 83.16 499 126 C334.33 126 169.66 126 0 126 C0 84.42 0 42.84 0 0 Z M3 3 C3 42.6 3 82.2 3 123 C166.02 123 329.04 123 497 123 C497 83.4 497 43.8 497 3 C333.98 3 170.96 3 3 3 Z " fill="#111111" transform="translate(0,0)"/>
<path d="M0 0 C5.56875 -0.0825 11.1375 -0.165 16.875 -0.25 C18.61120605 -0.28641602 20.34741211 -0.32283203 22.13623047 -0.36035156 C34.14951612 -0.50885021 43.13201303 1.08489936 52.08203125 9.765625 C58.56178426 17.3143393 58.83510319 26.21315462 58.453125 35.765625 C57.91938999 42.59623376 54.97663281 46.64940964 50.6875 51.75 C42.83919479 58.32067413 35.49686682 61.35254802 25.09765625 61.1953125 C24.13514954 61.19229126 24.13514954 61.19229126 23.15319824 61.18920898 C20.78955791 61.17885993 18.42602066 61.1509387 16.0625 61.125 C10.761875 61.08375 5.46125 61.0425 0 61 C0 40.87 0 20.74 0 0 Z " fill="#010101" transform="translate(321,31)"/>
<path d="M0 0 C15 0 15 0 19.24609375 3.76953125 C20.3619755 5.41640974 21.4257777 7.09966059 22.4375 8.8125 C23.51946631 10.46488627 24.60149818 12.11722962 25.68359375 13.76953125 C26.77800781 15.49558594 27.87242187 17.22164062 29 19 C31.64 22.63 34.28 26.26 37 30 C37.33 20.43 37.66 10.86 38 1 C43.61 1 49.22 1 55 1 C55 21.13 55 41.26 55 62 C41 62 41 62 36.4375 57.625 C35.363929 56.07360857 34.29412676 54.51881208 33.2734375 52.93212891 C31.26090419 49.87860348 29.0730218 46.95563407 26.90625 44.01049805 C24.2428714 40.36057284 21.62624099 36.67673739 19 33 C18.67 42.57 18.34 52.14 18 62 C12.06 62 6.12 62 0 62 C0 41.54 0 21.08 0 0 Z " fill="#030303" transform="translate(252,30)"/>
<path d="M0 0 C6.27 0 12.54 0 19 0 C18.23921863 3.80390683 17.45287008 6.64941799 16.00390625 10.16015625 C15.61009766 11.11857422 15.21628906 12.07699219 14.81054688 13.06445312 C14.39869141 14.05380859 13.98683594 15.04316406 13.5625 16.0625 C13.15451172 17.05572266 12.74652344 18.04894531 12.32617188 19.07226562 C9.17368871 26.70919467 9.17368871 26.70919467 7.80444336 29.00170898 C6.69637119 31.75423425 7.12529062 33.18366286 8 36 C8.91663074 37.92110597 9.9041257 39.80923017 10.94140625 41.66796875 C11.52470703 42.72564453 12.10800781 43.78332031 12.70898438 44.87304688 C13.32064453 45.96681641 13.93230469 47.06058594 14.5625 48.1875 C15.77584036 50.3664306 16.98566835 52.54732205 18.19140625 54.73046875 C18.72967041 55.69364014 19.26793457 56.65681152 19.82250977 57.64916992 C21 60 21 60 21 62 C14.4 62 7.8 62 1 62 C-0.65116773 58.91941847 -2.29608433 55.83577189 -3.9375 52.75 C-4.40607422 51.87730469 -4.87464844 51.00460938 -5.35742188 50.10546875 C-5.80537109 49.26113281 -6.25332031 48.41679688 -6.71484375 47.546875 C-7.12855225 46.77182617 -7.54226074 45.99677734 -7.96850586 45.19824219 C-8.9392844 43.1293925 -9.53558429 41.2309731 -10 39 C-12.64 39 -15.28 39 -18 39 C-18 46.59 -18 54.18 -18 62 C-23.94 62 -29.88 62 -36 62 C-36 41.87 -36 21.74 -36 1 C-30.39 1 -24.78 1 -19 1 C-19 8.26 -19 15.52 -19 23 C-9.68081651 22.16091118 -9.68081651 22.16091118 -7.07421875 18.89453125 C-6.71972656 17.93933594 -6.36523438 16.98414062 -6 16 C-5.74557129 15.3714209 -5.49114258 14.7428418 -5.22900391 14.09521484 C-4.3789567 11.9728325 -3.59079325 9.83729114 -2.8125 7.6875 C-1.4203125 3.8821875 -1.4203125 3.8821875 0 0 Z " fill="#040404" transform="translate(191,30)"/>
<path d="M0 0 C13.86 0 27.72 0 42 0 C42 4.62 42 9.24 42 14 C33.75 14 25.5 14 17 14 C17 16.97 17 19.94 17 23 C24.26 23 31.52 23 39 23 C39 27.62 39 32.24 39 37 C31.74 37 24.48 37 17 37 C17 40.3 17 43.6 17 47 C25.58 47 34.16 47 43 47 C43 51.62 43 56.24 43 61 C28.81 61 14.62 61 0 61 C0 40.87 0 20.74 0 0 Z " fill="#000000" transform="translate(441,31)"/>
<path d="M0 0 C4.640625 -0.061875 9.28125 -0.12375 14.0625 -0.1875 C16.23791382 -0.22846802 16.23791382 -0.22846802 18.45727539 -0.27026367 C26.7598761 -0.32388836 31.74837546 0.29442075 38.75 4.75 C43.14996221 9.14996221 44.18648234 13.39634172 44.4375 19.4375 C44.28504149 24.71546855 43.09318901 28.70741117 40 33 C36.8125 36 36.8125 36 34 36 C34.49983398 36.80219971 34.49983398 36.80219971 35.00976562 37.62060547 C36.51112495 40.03590415 38.00563105 42.45537067 39.5 44.875 C40.02464844 45.71675781 40.54929688 46.55851562 41.08984375 47.42578125 C41.58613281 48.23144531 42.08242187 49.03710938 42.59375 49.8671875 C43.05458984 50.61081543 43.51542969 51.35444336 43.99023438 52.12060547 C45 54 45 54 45 56 C40.05 56 35.1 56 30 56 C29.443125 54.85660156 28.88625 53.71320313 28.3125 52.53515625 C27.54320581 51.04347605 26.77228652 49.55263318 26 48.0625 C25.63777344 47.30775391 25.27554688 46.55300781 24.90234375 45.77539062 C24.52207031 45.05673828 24.14179687 44.33808594 23.75 43.59765625 C23.41484375 42.93258057 23.0796875 42.26750488 22.734375 41.58227539 C20.39558424 39.14291128 20.39558424 39.14291128 13 39 C13 44.61 13 50.22 13 56 C8.71 56 4.42 56 0 56 C0 37.52 0 19.04 0 0 Z " fill="#FAFAFA" transform="translate(30,32)"/>
<path d="M0 0 C5.94 0 11.88 0 18 0 C18 14.85 18 29.7 18 45 C26.25 45 34.5 45 43 45 C43 50.61 43 56.22 43 62 C28.81 62 14.62 62 0 62 C0 41.54 0 21.08 0 0 Z " fill="#060606" transform="translate(389,30)"/>
<path d="M0 0 C12.21 0 24.42 0 37 0 C37 3.63 37 7.26 37 11 C29.08 11 21.16 11 13 11 C13 14.63 13 18.26 13 22 C20.26 22 27.52 22 35 22 C35 25.63 35 29.26 35 33 C27.74 33 20.48 33 13 33 C13 36.96 13 40.92 13 45 C21.25 45 29.5 45 38 45 C38 48.63 38 52.26 38 56 C25.46 56 12.92 56 0 56 C0 37.52 0 19.04 0 0 Z " fill="#F7F7F7" transform="translate(92,32)"/>
<path d="M0 0 C5.94 0 11.88 0 18 0 C18 20.46 18 40.92 18 62 C12.06 62 6.12 62 0 62 C0 41.54 0 21.08 0 0 Z " fill="#050505" transform="translate(221,30)"/>
<path d="M0 0 C14.46153846 0 14.46153846 0 20.875 5.4375 C23.8541088 9.2843104 23.63504695 13.45933181 23.4140625 18.15234375 C22.84246729 22.08340894 21.81248115 24.18751885 19 27 C12.39663002 31.12710624 8.60567169 30 0 30 C0 20.1 0 10.2 0 0 Z " fill="#F8F8F8" transform="translate(338,46)"/>
<path d="M0 0 C13.17157795 -0.49239544 13.17157795 -0.49239544 16.91796875 1.734375 C19.21791815 4.2371342 19.68219245 5.15996078 19.625 8.5 C19.63789062 9.2528125 19.65078125 10.005625 19.6640625 10.78125 C18.64808142 14.17582207 17.00844144 15.21185007 14 17 C9.27267379 17.52005789 4.77279398 17.1784222 0 17 C0 11.39 0 5.78 0 0 Z " fill="#080808" transform="translate(42,43)"/>
</svg>
