<svg xmlns="http://www.w3.org/2000/svg" xmlns:xlink="http://www.w3.org/1999/xlink" zoomAndPan="magnify" preserveAspectRatio="xMidYMid meet" version="1.0" viewBox="1.5 144.1 373.5 94.5"><defs><g/><clipPath id="29b98f0908"><path d="M 101.6875 144.101562 L 122.707031 144.101562 L 122.707031 238.429688 L 101.6875 238.429688 Z M 101.6875 144.101562 " clip-rule="nonzero"/></clipPath><clipPath id="6181a4d962"><path d="M 117.738281 144.101562 L 240.738281 144.101562 L 240.738281 238.601562 L 117.738281 238.601562 Z M 117.738281 144.101562 " clip-rule="nonzero"/></clipPath><clipPath id="f0bdec7388"><path d="M 1.5 144.101562 L 124.5 144.101562 L 124.5 238.601562 L 1.5 238.601562 Z M 1.5 144.101562 " clip-rule="nonzero"/></clipPath><clipPath id="1f82481bb2"><path d="M 119.023438 144.101562 L 141.410156 144.101562 L 141.410156 238.429688 L 119.023438 238.429688 Z M 119.023438 144.101562 " clip-rule="nonzero"/></clipPath><clipPath id="f7bcd14358"><path d="M 197.582031 144.101562 L 320.582031 144.101562 L 320.582031 238.601562 L 197.582031 238.601562 Z M 197.582031 144.101562 " clip-rule="nonzero"/></clipPath><clipPath id="45b656892d"><path d="M 252.292969 144.101562 L 375 144.101562 L 375 238.601562 L 252.292969 238.601562 Z M 252.292969 144.101562 " clip-rule="nonzero"/></clipPath></defs><g clip-path="url(#29b98f0908)"><path fill="#2c6975" d="M 101.6875 144.101562 L 122.707031 144.101562 L 122.707031 238.441406 L 101.6875 238.441406 Z M 101.6875 144.101562 " fill-opacity="1" fill-rule="nonzero"/></g><g clip-path="url(#6181a4d962)"><path fill="#e0ecde" d="M 216.816406 144.101562 L 141.359375 144.101562 C 128.152344 144.101562 117.777344 154.476562 117.777344 167.679688 L 117.777344 214.84375 C 117.777344 228.050781 128.152344 238.425781 141.359375 238.425781 L 216.816406 238.425781 C 230.023438 238.425781 240.398438 228.050781 240.398438 214.84375 L 240.398438 167.679688 C 240.398438 154.476562 230.023438 144.101562 216.816406 144.101562 Z M 216.816406 144.101562 " fill-opacity="1" fill-rule="nonzero"/></g><g clip-path="url(#f0bdec7388)"><path fill="#2c6975" d="M 100.578125 144.101562 L 25.117188 144.101562 C 11.914062 144.101562 1.535156 154.476562 1.535156 167.679688 L 1.535156 214.84375 C 1.535156 228.050781 11.914062 238.425781 25.117188 238.425781 L 100.578125 238.425781 C 113.78125 238.425781 124.160156 228.050781 124.160156 214.84375 L 124.160156 167.679688 C 124.160156 154.476562 113.78125 144.101562 100.578125 144.101562 Z M 100.578125 144.101562 " fill-opacity="1" fill-rule="nonzero"/></g><g clip-path="url(#1f82481bb2)"><path fill="#e0ecde" d="M 119.023438 144.101562 L 141.410156 144.101562 L 141.410156 238.464844 L 119.023438 238.464844 Z M 119.023438 144.101562 " fill-opacity="1" fill-rule="nonzero"/></g><path stroke-linecap="butt" transform="matrix(0.75, 0, 0, 0.75, 6.046047, 135.800324)" fill="none" stroke-linejoin="miter" d="M 52.501107 68.500614 L 52.501107 54.672488 L 45.641731 54.672488 L 45.641731 68.500614 Z M 73.303192 110.000617 L 52.501107 110.000617 L 52.501107 89.198532 L 45.641731 89.198532 L 45.641731 110.000617 L 24.839647 110.000617 L 24.839647 33.865195 L 62.902149 33.865195 C 65.714649 33.865195 68.146941 34.901654 70.199025 36.974571 C 72.271942 39.026654 73.303192 41.458946 73.303192 44.266238 L 73.303192 68.500614 C 73.303192 71.313115 72.271942 73.750615 70.199025 75.823531 C 68.146941 77.875615 65.714649 78.901657 62.902149 78.901657 C 65.714649 78.901657 68.146941 79.92249 70.199025 81.958949 C 72.271942 83.974574 73.303192 86.386032 73.303192 89.198532 Z M 128.63132 110.000617 L 80.167775 110.000617 L 80.167775 33.865195 L 128.63132 33.865195 L 128.63132 54.672488 L 100.96986 54.672488 L 100.96986 61.531864 L 121.66257 61.531864 L 121.66257 82.333949 L 100.96986 82.333949 L 100.96986 89.198532 L 128.63132 89.198532 Z M 128.63132 110.000617 " stroke="#e0ecde" stroke-width="11.0667" stroke-opacity="1" stroke-miterlimit="4"/><g fill="#2c6975" fill-opacity="1"><g transform="translate(22.100734, 218.300318)"><g><path d="M 23.328125 -31.125 L 23.328125 -41.5 L 18.171875 -41.5 L 18.171875 -31.125 Z M 38.921875 0 L 23.328125 0 L 23.328125 -15.609375 L 18.171875 -15.609375 L 18.171875 0 L 2.578125 0 L 2.578125 -57.109375 L 31.125 -57.109375 C 33.226562 -57.109375 35.050781 -56.332031 36.59375 -54.78125 C 38.144531 -53.226562 38.921875 -51.398438 38.921875 -49.296875 L 38.921875 -31.125 C 38.921875 -29.019531 38.144531 -27.191406 36.59375 -25.640625 C 35.050781 -24.097656 33.226562 -23.328125 31.125 -23.328125 C 33.226562 -23.328125 35.050781 -22.566406 36.59375 -21.046875 C 38.144531 -19.523438 38.921875 -17.710938 38.921875 -15.609375 Z M 38.921875 0 "/></g></g></g><g fill="#2c6975" fill-opacity="1"><g transform="translate(63.596825, 218.300318)"><g><path d="M 38.921875 0 L 2.578125 0 L 2.578125 -57.109375 L 38.921875 -57.109375 L 38.921875 -41.5 L 18.171875 -41.5 L 18.171875 -36.359375 L 33.703125 -36.359375 L 33.703125 -20.75 L 18.171875 -20.75 L 18.171875 -15.609375 L 38.921875 -15.609375 Z M 38.921875 0 "/></g></g></g><g clip-path="url(#f7bcd14358)"><path fill="#e0ecde" d="M 296.660156 144.101562 L 221.199219 144.101562 C 207.996094 144.101562 197.617188 154.476562 197.617188 167.679688 L 197.617188 214.84375 C 197.617188 228.050781 207.996094 238.425781 221.199219 238.425781 L 296.660156 238.425781 C 309.863281 238.425781 320.238281 228.050781 320.238281 214.84375 L 320.238281 167.679688 C 320.238281 154.476562 309.863281 144.101562 296.660156 144.101562 Z M 296.660156 144.101562 " fill-opacity="1" fill-rule="nonzero"/></g><g clip-path="url(#45b656892d)"><path fill="#e0ecde" d="M 351.371094 144.101562 L 275.910156 144.101562 C 262.707031 144.101562 252.332031 154.476562 252.332031 167.679688 L 252.332031 214.84375 C 252.332031 228.050781 262.707031 238.425781 275.910156 238.425781 L 351.371094 238.425781 C 364.578125 238.425781 374.953125 228.050781 374.953125 214.84375 L 374.953125 167.679688 C 374.953125 154.476562 364.578125 144.101562 351.371094 144.101562 Z M 351.371094 144.101562 " fill-opacity="1" fill-rule="nonzero"/></g><path stroke-linecap="butt" transform="matrix(0.75, 0, 0, 0.75, 119.021809, 135.800324)" fill="none" stroke-linejoin="miter" d="M 67.788633 110.000617 L 46.986549 110.000617 L 46.986549 82.333949 L 40.121965 82.333949 L 40.121965 110.000617 L 19.31988 110.000617 L 19.31988 33.865195 L 40.121965 33.865195 L 40.121965 61.531864 L 46.986549 61.531864 L 46.986549 33.865195 L 67.788633 33.865195 L 67.788633 61.531864 C 67.788633 64.344364 66.752175 66.781864 64.684467 68.854781 C 62.627175 70.906864 60.200091 71.932906 57.387591 71.932906 C 60.200091 71.932906 62.627175 72.969365 64.684467 75.042281 C 66.752175 77.094365 67.788633 79.526657 67.788633 82.333949 Z M 95.450094 110.000617 L 74.648009 110.000617 L 74.648009 33.865195 L 95.450094 33.865195 Z M 157.642806 110.000617 L 136.950096 110.000617 L 123.116762 81.333948 L 123.116762 110.000617 L 102.314677 110.000617 L 102.314677 33.865195 L 123.116762 33.865195 L 136.950096 62.531864 L 136.950096 33.865195 L 157.642806 33.865195 Z M 192.16885 89.198532 L 192.16885 54.672488 L 185.304266 54.672488 L 185.304266 89.198532 Z M 212.970935 99.599575 C 212.970935 102.406867 211.934476 104.849575 209.861559 106.922492 C 207.809476 108.974575 205.377184 110.000617 202.569892 110.000617 L 164.502181 110.000617 L 164.502181 33.865195 L 202.569892 33.865195 C 205.377184 33.865195 207.809476 34.901654 209.861559 36.974571 C 211.934476 39.026654 212.970935 41.458946 212.970935 44.266238 Z M 261.330313 110.000617 L 219.83031 110.000617 L 219.83031 33.865195 L 240.632395 33.865195 L 240.632395 89.198532 L 261.330313 89.198532 Z M 316.653233 110.000617 L 268.189688 110.000617 L 268.189688 33.865195 L 316.653233 33.865195 L 316.653233 54.672488 L 288.991773 54.672488 L 288.991773 61.531864 L 309.684483 61.531864 L 309.684483 82.333949 L 288.991773 82.333949 L 288.991773 89.198532 L 316.653233 89.198532 Z M 316.653233 110.000617 " stroke="#2c6975" stroke-width="11.0667" stroke-opacity="1" stroke-miterlimit="4"/><g fill="#e0ecde" fill-opacity="1"><g transform="translate(130.939777, 218.300318)"><g><path d="M 38.921875 0 L 23.328125 0 L 23.328125 -20.75 L 18.171875 -20.75 L 18.171875 0 L 2.578125 0 L 2.578125 -57.109375 L 18.171875 -57.109375 L 18.171875 -36.359375 L 23.328125 -36.359375 L 23.328125 -57.109375 L 38.921875 -57.109375 L 38.921875 -36.359375 C 38.921875 -34.253906 38.144531 -32.425781 36.59375 -30.875 C 35.050781 -29.320312 33.226562 -28.546875 31.125 -28.546875 C 33.226562 -28.546875 35.050781 -27.769531 36.59375 -26.21875 C 38.144531 -24.675781 38.921875 -22.851562 38.921875 -20.75 Z M 38.921875 0 "/></g></g></g><g fill="#e0ecde" fill-opacity="1"><g transform="translate(172.435868, 218.300318)"><g><path d="M 18.171875 0 L 2.578125 0 L 2.578125 -57.109375 L 18.171875 -57.109375 Z M 18.171875 0 "/></g></g></g><g fill="#e0ecde" fill-opacity="1"><g transform="translate(193.183914, 218.300318)"><g><path d="M 44.078125 0 L 28.546875 0 L 18.171875 -21.5 L 18.171875 0 L 2.578125 0 L 2.578125 -57.109375 L 18.171875 -57.109375 L 28.546875 -35.609375 L 28.546875 -57.109375 L 44.078125 -57.109375 Z M 44.078125 0 "/></g></g></g><g fill="#e0ecde" fill-opacity="1"><g transform="translate(239.82552, 218.300318)"><g><path d="M 23.328125 -15.609375 L 23.328125 -41.5 L 18.171875 -41.5 L 18.171875 -15.609375 Z M 38.921875 -7.796875 C 38.921875 -5.691406 38.144531 -3.863281 36.59375 -2.3125 C 35.050781 -0.769531 33.226562 0 31.125 0 L 2.578125 0 L 2.578125 -57.109375 L 31.125 -57.109375 C 33.226562 -57.109375 35.050781 -56.332031 36.59375 -54.78125 C 38.144531 -53.226562 38.921875 -51.398438 38.921875 -49.296875 Z M 38.921875 -7.796875 "/></g></g></g><g fill="#e0ecde" fill-opacity="1"><g transform="translate(281.321611, 218.300318)"><g><path d="M 33.703125 0 L 2.578125 0 L 2.578125 -57.109375 L 18.171875 -57.109375 L 18.171875 -15.609375 L 33.703125 -15.609375 Z M 33.703125 0 "/></g></g></g><g fill="#e0ecde" fill-opacity="1"><g transform="translate(317.589195, 218.300318)"><g><path d="M 38.921875 0 L 2.578125 0 L 2.578125 -57.109375 L 38.921875 -57.109375 L 38.921875 -41.5 L 18.171875 -41.5 L 18.171875 -36.359375 L 33.703125 -36.359375 L 33.703125 -20.75 L 18.171875 -20.75 L 18.171875 -15.609375 L 38.921875 -15.609375 Z M 38.921875 0 "/></g></g></g></svg>