<?xml version="1.0" encoding="UTF-8"?>
<svg version="1.1" xmlns="http://www.w3.org/2000/svg" width="197" height="102">
<path d="M0 0 C65.01 0 130.02 0 197 0 C197 33.66 197 67.32 197 102 C131.99 102 66.98 102 0 102 C0 68.34 0 34.68 0 0 Z " fill="#FBFBFB" transform="translate(0,0)"/>
<path d="M0 0 C0.33 0.99 0.66 1.98 1 3 C1.66 2.505 2.32 2.01 3 1.5 C7.11751444 -0.55875722 9.41253398 -0.50971845 14 0 C16.5 2 16.5 2 18 4 C19.010625 3.34 20.02125 2.68 21.0625 2 C24.81624235 -0.139557 27.64942963 -0.5856537 32 0 C34.61593153 1.83115207 34.96989455 2.90968366 36 6 C36.05567693 7.95075455 36.10855119 9.90169604 36.13769531 11.85302734 C36.31542777 19.96076364 36.99508893 25.99508893 43 32 C46.89130904 35.29264611 49.98448659 35.37852931 55 35 C55.66 34.67 56.32 34.34 57 34 C58.99960012 33.960008 61.00047242 33.95653201 63 34 C63.625 36.3125 63.625 36.3125 64 39 C62 42 62 42 59.93359375 42.50390625 C51.91570382 42.69211963 47.20274047 39.87472171 41.3984375 34.5234375 C40.24460357 33.36960357 39.11941357 32.18725681 38 31 C35.16730334 29.58365167 32.52533562 29.6536995 29.375 29.4375 C28.18648437 29.35371094 26.99796875 29.26992187 25.7734375 29.18359375 C24.40058594 29.09271484 24.40058594 29.09271484 23 29 C23 28.34 23 27.68 23 27 C23.48823242 26.5450415 23.97646484 26.09008301 24.47949219 25.62133789 C27.10521497 22.82149444 26.34646056 19.0698428 26.25 15.4375 C26.24226563 14.26670898 26.24226563 14.26670898 26.234375 13.07226562 C26.26318831 8.90193195 26.26318831 8.90193195 25 5 C21.70924004 5.37904208 21.70924004 5.37904208 19 7 C18.89975874 9.63575543 18.86124979 12.23954245 18.875 14.875 C18.87113281 15.60847656 18.86726563 16.34195313 18.86328125 17.09765625 C18.86915862 20.32433238 18.9728114 22.91843421 20 26 C20.66 26.33 21.32 26.66 22 27 C22 27.66 22 28.32 22 29 C10.45 29 -1.1 29 -13 29 C-13 28.34 -13 27.68 -13 27 C-12.34 26.67 -11.68 26.34 -11 26 C-9.81165811 22.43497433 -9.77809667 19.14977271 -9.75 15.4375 C-9.729375 14.75236328 -9.70875 14.06722656 -9.6875 13.36132812 C-9.63530765 11.13676264 -9.63530765 11.13676264 -10 8 C-10.99 7.34 -11.98 6.68 -13 6 C-13 5.34 -13 4.68 -13 4 C-11.2097939 3.32942113 -9.41778511 2.6636531 -7.625 2 C-6.62726563 1.62875 -5.62953125 1.2575 -4.6015625 0.875 C-2 0 -2 0 0 0 Z " fill="#0D0D0D" transform="translate(131,56)"/>
<path d="M0 0 C0.33 0.99 0.66 1.98 1 3 C1.474375 2.505 1.94875 2.01 2.4375 1.5 C6.19849194 -0.70155626 9.74002982 -0.74256361 14 0 C16.5625 2 16.5625 2 18 4 C18.825 3.34 19.65 2.68 20.5 2 C24.48093829 -0.63194735 27.29773865 -0.68258632 32 0 C34.45674702 2.15237128 35.81094523 3.87553399 36.36035156 7.14331055 C36.51011316 9.64264827 36.5606032 12.12122382 36.5625 14.625 C36.5714373 16.32564141 36.59304083 18.02627583 36.62890625 19.7265625 C36.62963135 20.47502441 36.63035645 21.22348633 36.63110352 21.99462891 C37.09467923 24.51468908 38.15114683 25.29999648 40 27 C40 27.66 40 28.32 40 29 C28.45 29 16.9 29 5 29 C5.66 27.68 6.32 26.36 7 25 C8.16152902 21.51541293 8.13270324 18.73309492 8.125 15.0625 C8.12757813 13.83660156 8.13015625 12.61070313 8.1328125 11.34765625 C8.02667535 8.67237569 7.79917654 6.53072572 7 4 C5.02 4.66 3.04 5.32 1 6 C0.91892354 8.75059381 0.85947187 11.49879021 0.8125 14.25 C0.78736328 15.02730469 0.76222656 15.80460937 0.73632812 16.60546875 C0.67879255 21.09324374 0.78407139 23.58993397 4 27 C4 27.66 4 28.32 4 29 C-1.61 29 -7.22 29 -13 29 C-12 27 -11 25 -10 23 C-9.85001874 20.48492965 -9.76881058 18.01591534 -9.75 15.5 C-9.729375 14.81035156 -9.70875 14.12070312 -9.6875 13.41015625 C-9.63540253 11.16838663 -9.63540253 11.16838663 -10 8 C-10.99 7.34 -11.98 6.68 -13 6 C-13 5.34 -13 4.68 -13 4 C-11.39850114 3.32694982 -9.79368971 2.66177773 -8.1875 2 C-7.29417969 1.62875 -6.40085938 1.2575 -5.48046875 0.875 C-3 0 -3 0 0 0 Z " fill="#0A0A0A" transform="translate(136,16)"/>
<path d="M0 0 C0 0.66 0 1.32 0 2 C0.495 1.67 0.99 1.34 1.5 1 C6.0435132 -0.81740528 10.30313512 -0.694172 14.75 1.125 C18.41619937 4.18016614 20.70782788 6.78923095 21.3515625 11.66015625 C21.50330882 16.78504341 21.60057274 21.03936999 18 25 C13.37366922 28.96542638 8.9768973 30.05976897 3 30 C2.34 29.67 1.68 29.34 1 29 C0.91812945 30.56160485 0.86041725 32.12448483 0.8125 33.6875 C0.77769531 34.55761719 0.74289063 35.42773438 0.70703125 36.32421875 C0.87495459 39.58135623 0.87495459 39.58135623 4 44 C-1.61 44 -7.22 44 -13 44 C-12.01 42.02 -11.02 40.04 -10 38 C-9.54535681 34.80415036 -9.54535681 34.80415036 -9.6015625 31.46484375 C-9.59576172 29.63276367 -9.59576172 29.63276367 -9.58984375 27.76367188 C-9.60144531 26.50103516 -9.61304688 25.23839844 -9.625 23.9375 C-9.61339844 22.67099609 -9.60179687 21.40449219 -9.58984375 20.09960938 C-9.59371094 18.87951172 -9.59757812 17.65941406 -9.6015625 16.40234375 C-9.60494629 15.29366943 -9.60833008 14.18499512 -9.61181641 13.04272461 C-10.04161755 9.67378647 -11.06399182 7.75597589 -13 5 C-11.39967863 4.15930585 -9.79458829 3.32768495 -8.1875 2.5 C-6.84751953 1.80390625 -6.84751953 1.80390625 -5.48046875 1.09375 C-3 0 -3 0 0 0 Z " fill="#090909" transform="translate(36,56)"/>
<path d="M0 0 C4.39443074 4.06484844 5.68657624 6.77639573 5.9375 12.75 C5.77743822 17.70524589 5.06544907 20.65562916 1.5 24.3125 C-3.47285375 27.18145409 -7.88079609 28.11049345 -13.5 27.3125 C-18.06655463 25.91931384 -21.67716383 24.14407108 -24.6171875 20.25 C-26.51173046 16.09206501 -26.19818805 11.73874877 -25.5 7.3125 C-23.68006264 3.23584032 -22.22567796 1.75679263 -18.4375 -0.5625 C-12.33008325 -2.76064353 -5.8275992 -2.80973533 0 0 Z " fill="#060606" transform="translate(65.5,17.6875)"/>
<path d="M0 0 C4.29 0 8.58 0 13 0 C13.04898438 1.42054687 13.09796875 2.84109375 13.1484375 4.3046875 C13.22345936 6.16147856 13.29900744 8.01824841 13.375 9.875 C13.4059375 10.81214844 13.436875 11.74929687 13.46875 12.71484375 C13.50742188 13.61074219 13.54609375 14.50664063 13.5859375 15.4296875 C13.6173584 16.25710449 13.6487793 17.08452148 13.68115234 17.93701172 C13.82599137 20.21986085 13.82599137 20.21986085 16 22 C18.58354218 22.16687448 18.58354218 22.16687448 21 22 C21.08112454 19.41603321 21.14054748 16.83462432 21.1875 14.25 C21.21263672 13.52039063 21.23777344 12.79078125 21.26367188 12.0390625 C21.32365234 7.64049538 21.0048734 5.24936442 18 2 C18 1.34 18 0.68 18 0 C22.29 0 26.58 0 31 0 C31.03738281 1.48113281 31.07476562 2.96226563 31.11328125 4.48828125 C31.17893354 6.42971314 31.24538113 8.37111826 31.3125 10.3125 C31.33505859 11.28896484 31.35761719 12.26542969 31.38085938 13.27148438 C31.4340332 14.67817383 31.4340332 14.67817383 31.48828125 16.11328125 C31.51446533 16.97735596 31.54064941 17.84143066 31.56762695 18.73168945 C32.07665372 21.40213987 32.92329908 22.31011183 35 24 C33.21046815 24.83790789 31.41830305 25.67019396 29.625 26.5 C28.62726563 26.9640625 27.62953125 27.428125 26.6015625 27.90625 C24 29 24 29 22 29 C21.67 27.68 21.34 26.36 21 25 C20.59652344 25.474375 20.19304687 25.94875 19.77734375 26.4375 C17.65540443 28.30294116 16.34130863 28.62511857 13.5625 29 C12.80066406 29.12375 12.03882812 29.2475 11.25390625 29.375 C9 29 9 29 6.75390625 27.03515625 C4.45958247 23.06480085 4.4059437 19.94367636 4.375 15.4375 C4.49059633 8.88165845 4.49059633 8.88165845 2 3 C1.34 2.67 0.68 2.34 0 2 C0 1.34 0 0.68 0 0 Z " fill="#060606" transform="translate(83,56)"/>
<path d="M0 0 C1.2375 -0.103125 2.475 -0.20625 3.75 -0.3125 C4.44609375 -0.37050781 5.1421875 -0.42851562 5.859375 -0.48828125 C8 0 8 0 10.23046875 1.91796875 C12.67522106 6.17604728 12.5588423 9.79684223 12.5625 14.625 C12.5714373 16.32564141 12.59304083 18.02627583 12.62890625 19.7265625 C12.62963135 20.47502441 12.63035645 21.22348633 12.63110352 21.99462891 C13.09467923 24.51468908 14.15114683 25.29999648 16 27 C16 27.66 16 28.32 16 29 C4.45 29 -7.1 29 -19 29 C-19 28.67 -19 28.34 -19 28 C-14.05 27.67 -9.1 27.34 -4 27 C-4.99 25.35 -5.98 23.7 -7 22 C-7.7366405 16.74643985 -8.71114248 9.63291864 -5.6875 4.98046875 C-4.0625 3.6875 -4.0625 3.6875 -1 2 C-0.67 1.34 -0.34 0.68 0 0 Z " fill="#111111" transform="translate(160,16)"/>
<path d="M0 0 C3.27060012 1.63530006 5.22381741 2.9415692 7.375 5.875 C8 8 8 8 8 14 C2.06 14 -3.88 14 -10 14 C-9.34 16.64 -8.68 19.28 -8 22 C-4.29661796 23.23446068 -0.85339582 23.44981274 3 23 C5.9254644 21.6490712 5.9254644 21.6490712 8 20 C5.96361117 24.83771559 2.67277597 26.85901901 -2 29 C-7.42539079 29.76145836 -11.20468788 28.58209114 -16 26 C-19.85533004 21.88764796 -20.35679608 17.71932046 -20.27734375 12.28125 C-19.68782613 7.43225997 -16.8548648 4.77344911 -13.375 1.625 C-8.80427894 -0.57571755 -4.9875748 -0.80967123 0 0 Z " fill="#070707" transform="translate(113,16)"/>
<path d="M0 0 C1.17755859 -0.02126953 1.17755859 -0.02126953 2.37890625 -0.04296875 C4.4375 0.1875 4.4375 0.1875 6.4375 2.1875 C6.5625 5.3125 6.5625 5.3125 6.4375 8.1875 C3.15053767 8.98703138 1.72726808 9.28408936 -1.5625 8.1875 C-7.4853691 7.36974687 -11.82109882 8.06859554 -16.69921875 11.59765625 C-21.28899968 15.51388442 -24.19747173 18.49353105 -25.03515625 24.67578125 C-25.33749758 32.57506182 -25.33749758 32.57506182 -21.5625 39.1875 C-21.5625 39.8475 -21.5625 40.5075 -21.5625 41.1875 C-27.1725 41.1875 -32.7825 41.1875 -38.5625 41.1875 C-37.5625 39.1875 -36.5625 37.1875 -35.5625 35.1875 C-35.41370319 32.87828797 -35.34115416 30.5638236 -35.3125 28.25 C-35.28671875 27.00347656 -35.2609375 25.75695312 -35.234375 24.47265625 C-35.24915642 21.21766236 -35.24915642 21.21766236 -37.078125 19.37109375 C-37.56796875 18.98050781 -38.0578125 18.58992188 -38.5625 18.1875 C-38.5625 17.5275 -38.5625 16.8675 -38.5625 16.1875 C-36.96100114 15.51444982 -35.35618971 14.84927773 -33.75 14.1875 C-32.85667969 13.81625 -31.96335937 13.445 -31.04296875 13.0625 C-28.5625 12.1875 -28.5625 12.1875 -25.5625 12.1875 C-25.2325 13.5075 -24.9025 14.8275 -24.5625 16.1875 C-24.005625 15.52363281 -23.44875 14.85976563 -22.875 14.17578125 C-16.53913311 6.84458391 -10.24908025 0.08442405 0 0 Z " fill="#090909" transform="translate(110.5625,3.8125)"/>
<path d="M0 0 C2.61593153 1.83115207 2.96989455 2.90968366 4 6 C4.05567693 7.95075455 4.10855119 9.90169604 4.13769531 11.85302734 C4.31542777 19.96076364 4.99508893 25.99508893 11 32 C14.89130904 35.29264611 17.98448659 35.37852931 23 35 C23.66 34.67 24.32 34.34 25 34 C26.99960012 33.960008 29.00047242 33.95653201 31 34 C31.625 36.3125 31.625 36.3125 32 39 C30 42 30 42 27.93359375 42.50390625 C19.91570382 42.69211963 15.20274047 39.87472171 9.3984375 34.5234375 C8.24460357 33.36960357 7.11941357 32.18725681 6 31 C3.16730334 29.58365167 0.52533562 29.6536995 -2.625 29.4375 C-3.81351563 29.35371094 -5.00203125 29.26992187 -6.2265625 29.18359375 C-7.59941406 29.09271484 -7.59941406 29.09271484 -9 29 C-9 28.34 -9 27.68 -9 27 C-8.51176758 26.5450415 -8.02353516 26.09008301 -7.52050781 25.62133789 C-4.89478503 22.82149444 -5.65353944 19.0698428 -5.75 15.4375 C-5.75515625 14.65697266 -5.7603125 13.87644531 -5.765625 13.07226562 C-5.73681169 8.90193195 -5.73681169 8.90193195 -7 5 C-8.98 5.33 -10.96 5.66 -13 6 C-13 5.01 -13 4.02 -13 3 C-8.48191202 0.35526557 -5.24031055 -0.5932427 0 0 Z " fill="#070707" transform="translate(163,56)"/>
<path d="M0 0 C0.01458252 1.06959961 0.02916504 2.13919922 0.04418945 3.24121094 C0.10222301 7.21485594 0.17945519 11.18793725 0.26245117 15.16113281 C0.29567681 16.87978965 0.32371616 18.59855499 0.34643555 20.31738281 C0.38002561 22.79018323 0.43234178 25.26199156 0.48828125 27.734375 C0.49467117 28.50118591 0.5010611 29.26799683 0.50764465 30.05804443 C0.62605799 34.36791626 1.07737979 36.79790089 4 40 C4 40.66 4 41.32 4 42 C-1.61 42 -7.22 42 -13 42 C-12 40 -11 38 -10 36 C-9.7277121 31.38018192 -9.76834262 26.75192597 -9.75 22.125 C-9.729375 20.83207031 -9.70875 19.53914063 -9.6875 18.20703125 C-9.67976563 16.34498047 -9.67976563 16.34498047 -9.671875 14.4453125 C-9.6625293 13.30594238 -9.65318359 12.16657227 -9.64355469 10.99267578 C-10.03219366 7.72970553 -10.79610036 6.3791933 -13 4 C-11.58774074 3.32404685 -10.16997095 2.65959941 -8.75 2 C-7.56664062 1.443125 -7.56664062 1.443125 -6.359375 0.875 C-4 0 -4 0 0 0 Z " fill="#050505" transform="translate(35,3)"/>
<path d="M0 0 C0.845625 0.495 1.69125 0.99 2.5625 1.5 C2.5625 3.81 2.5625 6.12 2.5625 8.5 C-1.4375 4.5 -1.4375 4.5 -2.8125 2.6875 C-4.53464097 1.15232131 -4.53464097 1.15232131 -7.625 1.8125 C-9.0171875 2.1528125 -9.0171875 2.1528125 -10.4375 2.5 C-10.7675 3.82 -11.0975 5.14 -11.4375 6.5 C-10.04724609 7.22316406 -10.04724609 7.22316406 -8.62890625 7.9609375 C-7.41911257 8.5986582 -6.20948574 9.23669548 -5 9.875 C-4.38833984 10.19210938 -3.77667969 10.50921875 -3.14648438 10.8359375 C1.44921875 13.2734375 1.44921875 13.2734375 2.5625 15.5 C3.14453713 22.71726041 3.14453713 22.71726041 0.75 25.9375 C-2.76856948 28.45076391 -5.66400582 28.65893152 -9.875 28.6875 C-11.29619141 28.70876953 -11.29619141 28.70876953 -12.74609375 28.73046875 C-15.48251644 28.49614518 -17.10178123 27.89701383 -19.4375 26.5 C-19.4375 23.86 -19.4375 21.22 -19.4375 18.5 C-18.81875 19.28375 -18.2 20.0675 -17.5625 20.875 C-15.53891339 23.46837647 -15.53891339 23.46837647 -13.4375 25.5 C-9.85406024 25.66677282 -9.85406024 25.66677282 -6.4375 25.5 C-5.8840236 23.42446352 -5.4375 21.65634036 -5.4375 19.5 C-6.30375 19.2525 -7.17 19.005 -8.0625 18.75 C-12.36200311 17.15759144 -16.04116747 15.3213033 -18.875 11.625 C-19.69668802 8.52084524 -19.39406022 6.5609927 -18.4375 3.5 C-12.97281761 -1.82087496 -7.09069385 -3.09412095 0 0 Z " fill="#080808" transform="translate(79.4375,56.5)"/>
<path d="M0 0 C0.02505615 0.68102783 0.0501123 1.36205566 0.07592773 2.0637207 C0.19190952 5.14683755 0.31462616 8.22965046 0.4375 11.3125 C0.47681641 12.38435547 0.51613281 13.45621094 0.55664062 14.56054688 C0.61948242 16.10258789 0.61948242 16.10258789 0.68359375 17.67578125 C0.72025146 18.62364502 0.75690918 19.57150879 0.79467773 20.5480957 C0.91430187 23.136171 0.91430187 23.136171 2 26 C2.66 26.33 3.32 26.66 4 27 C4 27.66 4 28.32 4 29 C-1.61 29 -7.22 29 -13 29 C-12.34 27.68 -11.68 26.36 -11 25 C-9.8933402 21.68002061 -9.79759728 19.05693373 -9.75 15.5625 C-9.72421875 14.42941406 -9.6984375 13.29632813 -9.671875 12.12890625 C-10.02531795 8.75857529 -10.72176817 7.4401062 -13 5 C-11.39967863 4.15930585 -9.79458829 3.32768495 -8.1875 2.5 C-6.84751953 1.80390625 -6.84751953 1.80390625 -5.48046875 1.09375 C-3 0 -3 0 0 0 Z " fill="#0A0A0A" transform="translate(17,56)"/>
<path d="M0 0 C8.19256018 -0.63019694 8.19256018 -0.63019694 11.5625 2 C12.036875 2.66 12.51125 3.32 13 4 C14.32 3.01 15.64 2.02 17 1 C17.66 1.33 18.32 1.66 19 2 C18.01 2.515625 17.02 3.03125 16 3.5625 C13.26355499 5.78263463 13.00527296 6.96027701 12.53125 10.53125 C12.17423853 18.62705502 12.17423853 18.62705502 15 26 C15.66 26.66 16.32 27.32 17 28 C11.39 28 5.78 28 0 28 C0.99 26.02 1.98 24.04 3 22 C3.39696494 18.47885397 3.39696494 18.47885397 3.25 14.875 C3.23453125 13.67617188 3.2190625 12.47734375 3.203125 11.2421875 C3.01670688 7.52236467 3.01670688 7.52236467 2 4 C1.01 3.67 0.02 3.34 -1 3 C-0.67 2.01 -0.34 1.02 0 0 Z " fill="#030303" transform="translate(141,16)"/>
<path d="M0 0 C0 1.32 0 2.64 0 4 C0.66 4.33 1.32 4.66 2 5 C1.67 5.33 1.34 5.66 1 6 C0.84543432 8.57708556 0.76827157 11.10892521 0.75 13.6875 C0.729375 14.39583984 0.70875 15.10417969 0.6875 15.83398438 C0.68234375 16.53201172 0.6771875 17.23003906 0.671875 17.94921875 C0.6625293 18.58174561 0.65318359 19.21427246 0.64355469 19.8659668 C1.02292737 22.78022712 1.02292737 22.78022712 4 28 C-1.61 28 -7.22 28 -13 28 C-12.01 26.35 -11.02 24.7 -10 23 C-9.52673363 19.25997048 -9.52673363 19.25997048 -9.625 15.3125 C-9.61339844 14.63638672 -9.60179688 13.96027344 -9.58984375 13.26367188 C-9.56566443 11.07146399 -9.56566443 11.07146399 -10 8 C-10.99 7.34 -11.98 6.68 -13 6 C-13 5.34 -13 4.68 -13 4 C-11.2097939 3.32942113 -9.41778511 2.6636531 -7.625 2 C-6.62726563 1.62875 -5.62953125 1.2575 -4.6015625 0.875 C-2 0 -2 0 0 0 Z " fill="#060606" transform="translate(131,56)"/>
<path d="M0 0 C2.625 0.25 2.625 0.25 4.375 1.5625 C8.00161538 6.45843076 7.16928195 13.48202505 6.625 19.25 C5.56882748 21.83277996 4.52781646 23.1687945 2.625 25.25 C-0.42346865 24.92043582 -1.95929646 24.6805501 -4.125 22.4375 C-6.67876479 17.96841163 -6.93300516 13.3382504 -6.375 8.25 C-3.9279608 0.41346956 -3.9279608 0.41346956 0 0 Z " fill="#F3F3F3" transform="translate(55.375,17.75)"/>
<path d="M0 0 C2.6875 0.375 2.6875 0.375 4.9375 2.75 C7.47986647 6.56354971 7.89357834 8.66826758 8 13.25 C8.03738281 14.29929687 8.07476562 15.34859375 8.11328125 16.4296875 C7.6875 19.375 7.6875 19.375 5.8671875 21.76953125 C3.6875 23.375 3.6875 23.375 0.5 23.1875 C-2.3125 22.375 -2.3125 22.375 -3.3125 21.375 C-3.41130797 19.89847336 -3.44329245 18.41732764 -3.4453125 16.9375 C-3.44660156 16.04289062 -3.44789062 15.14828125 -3.44921875 14.2265625 C-3.44341797 12.81503906 -3.44341797 12.81503906 -3.4375 11.375 C-3.44136719 10.43398437 -3.44523437 9.49296875 -3.44921875 8.5234375 C-3.44792969 7.62882812 -3.44664063 6.73421875 -3.4453125 5.8125 C-3.44362061 4.57306641 -3.44362061 4.57306641 -3.44189453 3.30859375 C-3.2512794 0.46015634 -2.82017373 0.45732547 0 0 Z " fill="#F9F9F9" transform="translate(39.3125,59.625)"/>
<path d="M0 0 C2.4375 0.8125 2.4375 0.8125 4.4375 2.8125 C4.66351089 5.48353778 4.76181568 8.01715737 4.75 10.6875 C4.76611328 11.40808594 4.78222656 12.12867188 4.79882812 12.87109375 C4.80275695 17.13780251 4.49491756 19.73088125 1.4375 22.8125 C-0.9375 22.5625 -0.9375 22.5625 -3.5625 21.8125 C-6.14612571 18.25891242 -5.86250683 14.51017192 -5.875 10.25 C-5.89111328 9.57775391 -5.90722656 8.90550781 -5.92382812 8.21289062 C-5.92673725 5.28340231 -5.88935011 3.28774757 -4.203125 0.8359375 C-2.5625 -0.1875 -2.5625 -0.1875 0 0 Z " fill="#F0F0F0" transform="translate(158.5625,20.1875)"/>
<path d="M0 0 C0.78375 0.04125 1.5675 0.0825 2.375 0.125 C5.71204188 5.5043115 4.96872678 12.04275242 4.375 18.125 C3.34110066 20.9704708 2.2260599 22.69548389 0.375 25.125 C-4.57201171 20.33756932 -4.57201171 20.33756932 -4.79296875 15.28125 C-4.80494856 13.72919925 -4.8112257 12.17709646 -4.8125 10.625 C-4.82474609 9.83996094 -4.83699219 9.05492187 -4.84960938 8.24609375 C-4.85486254 6.20436274 -4.7472018 4.16307749 -4.625 2.125 C-2.625 0.125 -2.625 0.125 0 0 Z " fill="#EFEFEF" transform="translate(140.625,19.875)"/>
<path d="M0 0 C2.5018939 3.75284085 2.29930669 5.89806957 2.3125 10.375 C2.32925781 11.68210937 2.34601563 12.98921875 2.36328125 14.3359375 C1.98987432 18.10212781 1.20795145 19.98227216 -1 23 C-2.875 22.75 -2.875 22.75 -5 22 C-7.64535148 18.34291761 -7.33185154 14.20200366 -7.3125 9.875 C-7.32861328 9.14667969 -7.34472656 8.41835937 -7.36132812 7.66796875 C-7.36328125 5.5546875 -7.36328125 5.5546875 -7 2 C-4 0 -4 0 0 0 Z " fill="#F4F4F4" transform="translate(138,60)"/>
<path d="M0 0 C2.64168921 0.35698503 4.60890736 0.752308 6.875 2.1875 C8 4 8 4 7.8125 7.125 C7.544375 8.07375 7.27625 9.0225 7 10 C4.59454362 11.20272819 3.05003047 11.10071472 0.375 11.0625 C-0.85089844 11.04896484 -0.85089844 11.04896484 -2.1015625 11.03515625 C-3.04128906 11.01775391 -3.04128906 11.01775391 -4 11 C-3.56179109 6.44262737 -3.14958831 3.42346555 0 0 Z " fill="#ECECEC" transform="translate(106,18)"/>
<path d="M0 0 C2.9375 0.1875 2.9375 0.1875 3.9375 1.1875 C4.125 4.625 4.125 4.625 3.9375 8.1875 C3.2775 8.8475 2.6175 9.5075 1.9375 10.1875 C-1.1875 9.8125 -1.1875 9.8125 -4.0625 9.1875 C-4.6875 5.8125 -4.6875 5.8125 -5.0625 2.1875 C-3.0625 0.1875 -3.0625 0.1875 0 0 Z " fill="#21907C" transform="translate(12.0625,41.8125)"/>
<path d="M0 0 C0.61875 0.78375 1.2375 1.5675 1.875 2.375 C5.49743253 6.84976959 7.27243091 7.36360343 13 8 C12.67 8.66 12.34 9.32 12 10 C3.42857143 10.28571429 3.42857143 10.28571429 0 8 C0 5.36 0 2.72 0 0 Z " fill="#101010" transform="translate(60,75)"/>
<path d="M0 0 C0.33 0.99 0.66 1.98 1 3 C-1.25 6.1875 -1.25 6.1875 -4 9 C-4.99 9 -5.98 9 -7 9 C-7 6.69 -7 4.38 -7 2 C-6.34 3.32 -5.68 4.64 -5 6 C-3.35 4.02 -1.7 2.04 0 0 Z " fill="#212121" transform="translate(91,14)"/>
</svg>
